<svg xmlns="http://www.w3.org/2000/svg" width="256" height="256" viewBox="0 0 256 256">
  <defs>
    <linearGradient id="bg" x1="24" y1="16" x2="224" y2="240" gradientUnits="userSpaceOnUse">
      <stop offset="0" stop-color="#0f172a" />
      <stop offset="0.65" stop-color="#155e75" />
      <stop offset="1" stop-color="#0d9488" />
    </linearGradient>
    <filter id="shadow" x="-20%" y="-20%" width="140%" height="140%">
      <feDropShadow dx="0" dy="10" stdDeviation="10" flood-color="#020617" flood-opacity="0.28" />
    </filter>
  </defs>

  <rect width="256" height="256" rx="56" fill="url(#bg)" />
  <ellipse cx="58" cy="44" rx="74" ry="56" fill="#ffffff" opacity="0.08" />

  <g filter="url(#shadow)">
    <g>
      <rect x="36" y="48" width="82" height="148" rx="20" fill="#f8fafc" fill-opacity="0.96" />
      <path d="M36 68c0-11.046 8.954-20 20-20h42c11.046 0 20 8.954 20 20v10H36V68z" fill="#22c55e" />
      <rect x="52" y="96" width="50" height="10" rx="5" fill="#94a3b8" />
      <rect x="52" y="122" width="50" height="10" rx="5" fill="#64748b" />
      <rect x="52" y="148" width="34" height="10" rx="5" fill="#22c55e" />
    </g>

    <g>
      <rect x="138" y="72" width="82" height="148" rx="20" fill="#f8fafc" fill-opacity="0.96" />
      <path d="M138 92c0-11.046 8.954-20 20-20h42c11.046 0 20 8.954 20 20v10h-82V92z" fill="#3b82f6" />
      <rect x="154" y="120" width="50" height="10" rx="5" fill="#94a3b8" />
      <rect x="154" y="146" width="50" height="10" rx="5" fill="#64748b" />
      <rect x="154" y="172" width="34" height="10" rx="5" fill="#3b82f6" />
    </g>
  </g>

  <rect x="82" y="78" width="92" height="100" rx="26" fill="#0f172a" fill-opacity="0.96" />
  <rect x="94" y="98" width="48" height="18" rx="9" fill="#2dd4bf" />
  <path d="M142 87l28 20-28 20z" fill="#2dd4bf" />
  <rect x="114" y="140" width="48" height="18" rx="9" fill="#fb923c" />
  <path d="M114 129l-28 20 28 20z" fill="#fb923c" />

  <rect x="2" y="2" width="252" height="252" rx="54" fill="none" stroke="#ffffff" stroke-opacity="0.16" stroke-width="4" />
</svg>
